<?xml version="1.0" encoding="UTF-8" standalone="no"?>
<svg
   width="16"
   height="16"
   version="1.1"
   id="svg2"
   sodipodi:docname="com.github.akamrzero.Lyris-symbolic.svg"
   inkscape:version="1.4.2 (ebf0e940d0, 2025-05-08)"
   xmlns:inkscape="http://www.inkscape.org/namespaces/inkscape"
   xmlns:sodipodi="http://sodipodi.sourceforge.net/DTD/sodipodi-0.dtd"
   xmlns="http://www.w3.org/2000/svg"
   xmlns:svg="http://www.w3.org/2000/svg">
  <defs
     id="defs2">
    <linearGradient
       id="d"
       gradientUnits="userSpaceOnUse"
       x1="32"
       x2="96"
       y1="77"
       y2="77">
      <stop
         offset="0"
         stop-color="#ed333b"
         id="stop7" />
      <stop
         offset="1"
         stop-color="#5d5ae3"
         id="stop8" />
    </linearGradient>
  </defs>
  <sodipodi:namedview
     id="namedview2"
     pagecolor="#ffffff"
     bordercolor="#000000"
     borderopacity="0.25"
     inkscape:showpageshadow="2"
     inkscape:pageopacity="0.0"
     inkscape:pagecheckerboard="0"
     inkscape:deskcolor="#d1d1d1"
     inkscape:zoom="49.806834"
     inkscape:cx="5.5916022"
     inkscape:cy="9.9283564"
     inkscape:window-width="2560"
     inkscape:window-height="1367"
     inkscape:window-x="0"
     inkscape:window-y="0"
     inkscape:window-maximized="1"
     inkscape:current-layer="svg2" />
  <path
     id="path11"
     style="fill:#2e3436;fill-rule:evenodd;stroke:none;stroke-width:8.48307;stroke-linecap:round;stroke-linejoin:bevel;stroke-opacity:1;paint-order:markers stroke fill;fill-opacity:1"
     d="M 8.4003667,-2.2493868e-8 C 8.1356864,-1.4624939e-6 7.9226003,0.32059301 7.9226003,0.71898179 l -7e-7,10.66773421 c -0.8874478,-0.463788 -2.1497112,-0.256185 -3.118841,0.512953 -1.2268826,0.973649 -1.5803087,2.5113 -0.7893549,3.434244 0.7908408,0.922874 2.4263472,0.881687 3.6529916,-0.092 0.8090683,-0.642068 1.2706113,-1.564343 1.2048037,-2.407489 0.00402,-0.03778 0.00596,-0.07661 0.00596,-0.116156 l 1.4e-6,-8.6727277 c 0.8044465,0.4753729 1.4908466,1.0097875 2.0166266,1.6244942 1.137549,1.3299465 0.853815,3.4745346 0.443853,5.5602445 l 0.08859,-0.08861 C 12.73675,9.4717058 12.982141,5.6641908 10.608738,3.5109535 9.3553213,2.3738094 9.2783287,1.3852183 8.8781476,0.47344508 8.7557411,0.1945535 8.722673,-7.4249387e-7 8.4003796,-2.2493868e-8 Z"
     sodipodi:nodetypes="sccccccscsccssss" />
</svg>
