<?xml version="1.0" encoding="UTF-8" standalone="no"?>
<svg
   height="128"
   viewBox="0 0 128 128"
   width="128"
   version="1.1"
   id="svg11"
   xml:space="preserve"
   xmlns:xlink="http://www.w3.org/1999/xlink"
   xmlns="http://www.w3.org/2000/svg"
   xmlns:svg="http://www.w3.org/2000/svg"><defs
     id="defs11"><linearGradient
       id="b"
       gradientUnits="userSpaceOnUse"
       x1="16.000004"
       x2="112.00001"
       y1="71.999992"
       y2="71.999992"
       xlink:href="#b-1"><stop
         offset="0"
         stop-color="#ed333b"
         id="stop12" /><stop
         offset="0.118129"
         stop-color="#faa39a"
         id="stop13" /><stop
         offset="0.269565"
         stop-color="#f66151"
         id="stop14" /><stop
         offset="0.782711"
         stop-color="#7875ea"
         id="stop15" /><stop
         offset="0.937203"
         stop-color="#9592dc"
         id="stop16" /><stop
         offset="1"
         stop-color="#4a46c3"
         id="stop17" /></linearGradient><linearGradient
       xlink:href="#d"
       id="linearGradient19"
       x1="30.129589"
       y1="60.956673"
       x2="60.474277"
       y2="60.956673"
       gradientUnits="userSpaceOnUse"
       gradientTransform="translate(9.4003209)" /></defs><filter
     id="a"
     height="1"
     width="1"
     x="0"
     y="0"><feColorMatrix
       color-interpolation-filters="sRGB"
       values="0 0 0 0 1 0 0 0 0 1 0 0 0 0 1 0 0 0 1 0"
       id="feColorMatrix1" /></filter><linearGradient
     id="b-1"
     gradientUnits="userSpaceOnUse"
     x1="16.000004"
     x2="112.00001"
     y1="71.999992"
     y2="71.999992"><stop
       offset="0"
       stop-color="#ed333b"
       id="stop1" /><stop
       offset="0.118129"
       stop-color="#faa39a"
       id="stop2" /><stop
       offset="0.269565"
       stop-color="#f66151"
       id="stop3" /><stop
       offset="0.782711"
       stop-color="#7875ea"
       id="stop4" /><stop
       offset="0.937203"
       stop-color="#9592dc"
       id="stop5" /><stop
       offset="1"
       stop-color="#4a46c3"
       id="stop6" /></linearGradient><mask
     id="c"><g
       filter="url(#a)"
       id="g6"><rect
         fill-opacity="0.8"
         height="153.60001"
         width="153.60001"
         x="-12.8"
         y="-12.8"
         id="rect6" /></g></mask><linearGradient
     id="d"
     gradientUnits="userSpaceOnUse"
     x1="32"
     x2="96"
     y1="77"
     y2="77"><stop
       offset="0"
       stop-color="#ed333b"
       id="stop7" /><stop
       offset="1"
       stop-color="#5d5ae3"
       id="stop8" /></linearGradient><clipPath
     id="e"><rect
       height="152"
       width="192"
       id="rect8"
       x="0"
       y="0" /></clipPath><path
     d="M 32.375,14.007812 C 28.070312,13.90625 23.902344,15.546875 20.820312,18.554688 17.738281,21.566406 16,25.691406 16,30 v 16.976562 c 0,6.65625 0.0078,13.316407 0,19.972657 v 0.07422 16.414062 c 0.0039,6.820312 0.0078,13.640625 0,20.460939 -0.03125,1.62109 0.230469,3.21094 0.710938,4.72265 0.0078,0.0156 0.01172,0.0273 0.01562,0.043 0.136719,0.42188 0.285157,0.83985 0.460938,1.25391 0.148438,0.35547 0.308594,0.70703 0.480469,1.05469 0.01953,0.0391 0.03906,0.0742 0.05859,0.11328 0.07422,0.16406 0.152344,0.32422 0.234376,0.48828 0.511718,0.93359 1.113281,1.81641 1.804687,2.63672 1.109375,1.30859 2.421875,2.42969 3.890625,3.32422 0.386719,0.23828 0.785156,0.46484 1.191406,0.67187 1.734375,0.89063 3.636719,1.45313 5.621094,1.60547 0.05859,0.004 0.121094,0.0156 0.183594,0.0195 0.246094,0.0195 0.492187,0.0312 0.738281,0.0391 0.355469,0.0195 0.710937,0.0312 1.066406,0.0234 0.02734,-0.004 0.05078,-0.004 0.07813,-0.008 0.449219,-0.0156 0.898438,-0.0469 1.34375,-0.10547 2.15625,-0.25391 4.238282,-0.94141 6.121094,-2.02344 l 0.265625,-0.15234 C 40.855469,117.28906 41.4375,116.95703 42,116.60156 h 0.0039 L 72,99.28125 104,80.804688 c 5.24219,-3.027344 8.32422,-8.753907 7.96875,-14.800782 -0.0937,-2.03125 -0.57422,-4.042968 -1.49609,-5.90625 -0.67578,-1.539062 -1.63672,-2.875 -2.77344,-4.058594 -0.0508,-0.05078 -0.10156,-0.101562 -0.14844,-0.152343 -0.26172,-0.261719 -0.52344,-0.519531 -0.79687,-0.765625 -0.22657,-0.203125 -0.45703,-0.398438 -0.69141,-0.585938 -0.17187,-0.140625 -0.34766,-0.277344 -0.52344,-0.414062 -0.15234,-0.113282 -0.30468,-0.226563 -0.46093,-0.335938 -0.98047,-0.707031 -2.01563,-1.339844 -3.07813,-1.902344 -0.082,-0.03125 -0.16406,-0.05859 -0.24609,-0.08984 L 40,16.144531 c -2.320312,-1.339843 -4.941406,-2.074219 -7.625,-2.136719 z m 0,0"
     fill="url(#b)"
     fill-rule="evenodd"
     id="path8"
     style="fill:url(#b)" /><path
     d="M 32.378906,8.007812 C 23.394531,7.796875 16,15.015625 16,24 v 41.898438 c 0.0039,0.01172 0.0078,0.01953 0.01563,0.03125 -0.02344,10.65625 -0.0039,21.3125 -0.01563,31.96875 -0.148438,8.054692 6.601562,15.429692 14.648438,15.933592 3.203124,0.35547 6.304687,-0.53906 9.128906,-1.97265 0.07422,-0.0352 0.148437,-0.0625 0.222656,-0.10157 l 0.265625,-0.15234 c 0.589844,-0.31641 1.171875,-0.64844 1.734375,-1 0,-0.004 0,-0.004 0.0039,-0.004 L 104,74.75 c 7.04688,-3.894531 10.05859,-13.429688 6.47266,-20.652344 -1.64063,-3.742187 -4.9375,-6.351562 -8.47266,-8.214844 -0.082,-0.03125 -0.16406,-0.05859 -0.24609,-0.08594 L 40,10.144531 C 37.679688,8.804688 35.058594,8.070312 32.378906,8.007812 Z m 0,0"
     fill="#f6f5f4"
     fill-rule="evenodd"
     id="path9"
     style="fill:#f6f5f4" /><path
     id="path11"
     style="fill:url(#linearGradient19);fill-rule:evenodd;stroke:none;stroke-width:29.202;stroke-linecap:round;stroke-linejoin:bevel;stroke-opacity:1;paint-order:markers stroke fill"
     d="m 56.08049,33.417703 c -0.911127,-5e-6 -1.644648,1.103599 -1.644649,2.475001 l -1e-6,36.722299 c -3.054925,-1.596527 -7.400104,-0.881879 -10.736208,1.765776 -4.223385,3.351663 -5.440009,8.644827 -2.717252,11.821942 2.722367,3.176876 8.352387,3.035097 12.574951,-0.316673 2.785114,-2.210236 4.373917,-5.385049 4.147383,-8.287471 0.01391,-0.130037 0.02043,-0.263721 0.02043,-0.399853 l 3e-6,-29.854746 c 2.769206,1.63641 5.132047,3.476063 6.941975,5.592112 3.915866,4.578169 2.939149,11.960638 1.527909,19.140424 l 0.305,-0.304999 C 71.007881,66.022828 71.852607,52.915949 63.682474,45.503707 59.367751,41.589234 59.102714,38.186139 57.725141,35.047476 57.303773,34.087429 57.189939,33.4177 56.080487,33.417703 Z" /></svg>
